<svg width="811" height="328" viewBox="0 0 811 328" fill="none" xmlns="http://www.w3.org/2000/svg">
<path d="M385.604 240.438L632.274 239.95L631.786 16.3381C631.786 7.31557 624.474 0 615.212 0L384.873 0.487733L385.604 240.438Z" fill="#EF5F53"/>
<path d="M0.974787 241.413L385.36 240.681L384.873 0.731659L16.8182 1.46318C7.79964 1.46318 0.487305 8.7787 0.487305 18.045L0.974787 241.413Z" fill="#F39476"/>
<path d="M795.584 144.604C795.584 145.579 796.315 146.311 797.046 146.555C798.996 147.042 806.308 147.042 808.502 146.311C809.477 146.067 810.452 145.336 810.452 144.116C811.183 124.608 811.183 105.588 810.452 87.5428C810.452 86.3235 809.477 85.592 808.502 85.3481C806.065 84.6166 797.534 84.1289 794.852 85.1043C793.877 85.3481 793.146 86.3236 793.146 87.299C792.659 105.832 793.39 124.852 795.584 144.604Z" fill="#CD2827"/>
<path d="M783.64 161.917C783.883 161.917 784.127 161.917 784.615 161.674L801.189 153.383C805.089 151.432 807.527 147.53 807.527 143.141L807.283 81.9342C807.283 79.4956 805.333 77.5449 802.895 77.5449H757.315C756.096 77.5449 755.365 78.5202 755.365 79.4956C755.365 80.7149 756.34 81.4464 757.315 81.4464H802.895C803.139 81.4464 803.139 81.6903 803.139 81.6903L803.383 142.897C803.383 145.823 801.677 148.262 799.239 149.481L782.665 157.772C781.69 158.26 781.202 159.479 781.69 160.454C782.177 161.674 782.908 161.917 783.64 161.917Z" fill="#822626"/>
<path d="M418.753 239.95C418.753 239.95 425.091 239.95 434.841 239.95H473.596C502.602 239.95 509.427 254.337 527.22 289.695L583.525 289.452C583.525 289.452 583.525 285.306 583.525 278.234L798.508 277.747C799.483 259.946 801.433 223.856 801.433 189.716C801.433 188.497 801.433 187.522 801.433 186.302C801.433 176.548 799.727 165.819 796.802 155.09C785.346 113.147 756.34 68.5223 744.397 52.1842C740.497 46.8195 737.084 42.1864 734.159 38.0409C725.872 27.0676 720.266 21.459 709.785 21.459L449.222 22.1906C443.859 22.1906 438.984 25.8484 437.522 30.9692C415.097 113.391 418.51 176.061 418.753 239.95ZM638.368 51.2089C638.124 49.9896 639.099 49.0142 640.318 49.0142L719.535 48.7703C724.166 48.7703 728.797 51.2089 731.722 55.3544C762.677 97.5406 775.108 136.069 779.74 158.26L784.615 181.669C785.346 185.083 783.152 187.766 779.74 187.766H760.484C757.315 187.766 753.903 186.302 751.465 183.864L711.979 146.067C707.591 141.922 701.741 139.483 696.135 139.483H648.849L638.368 51.2089Z" fill="#CD2827"/>
<path d="M597.418 155.821C599.124 163.624 601.074 171.671 602.78 180.206C603.999 186.059 609.118 190.204 614.968 190.448C691.991 193.13 755.852 193.374 801.432 189.96C801.432 188.741 801.432 187.766 801.432 186.546C801.432 176.792 799.726 166.063 796.801 155.333L597.418 155.821Z" fill="#822626"/>
<path opacity="0.75" d="M455.072 49.2581L534.289 49.0142C538.92 49.0142 543.064 51.4527 545.257 55.5982C567.438 97.7845 572.069 136.313 572.069 158.503V181.913C572.069 185.327 569.388 188.01 565.976 188.01H546.72C543.551 188.01 540.382 186.546 538.432 184.108L506.746 146.311C503.089 142.165 497.971 139.483 492.365 139.727H445.078L452.634 51.4527C452.634 50.2334 453.609 49.2581 455.072 49.2581Z" fill="#402B2B"/>
<path d="M418.753 239.95C418.753 239.95 425.091 239.95 434.841 239.95H473.596C502.602 239.95 509.427 254.337 527.22 289.695L583.525 289.452C583.525 289.452 583.525 285.306 583.525 278.234L798.508 277.747C799.483 259.946 801.433 223.856 801.433 189.716C755.853 193.13 691.748 193.13 614.968 190.204C609.118 189.96 604 185.815 602.781 179.962C601.075 171.428 599.125 163.137 597.418 155.577C586.937 110.952 575.481 79.0079 560.369 44.3811C559.151 41.6987 561.1 38.5286 564.025 38.5286L734.159 38.0409C725.872 27.0676 720.266 21.459 709.785 21.459L449.222 22.1906C443.859 22.1906 438.984 25.8484 437.522 30.9692C415.097 113.391 418.51 176.061 418.753 239.95ZM444.834 139.727L452.39 51.4527C452.39 50.2335 453.609 49.2581 454.828 49.2581L534.045 49.0142C538.676 49.0142 542.82 51.4528 545.013 55.5982C567.194 97.7845 571.825 136.313 571.825 158.503V181.913C571.825 185.327 569.144 188.009 565.732 188.009H546.476C543.307 188.009 540.138 186.546 538.188 184.108L506.502 146.311C502.845 142.165 497.727 139.483 492.121 139.727H444.834Z" fill="url(#paint0_linear)"/>
<path d="M428.26 233.61C428.26 237.267 431.185 239.95 434.841 239.95H473.596C502.602 239.95 509.427 254.337 527.22 289.695L583.525 289.452C583.525 289.452 583.525 285.306 583.525 278.234L583.282 179.475C583.282 130.461 574.507 99.4915 551.351 50.4774C547.939 43.1619 540.383 38.5287 532.339 38.5287L448.491 38.7725C446.541 38.7725 445.078 39.9918 444.591 41.6988C428.016 104.612 428.016 207.03 428.26 233.61ZM444.835 139.727L452.391 51.4528C452.391 50.2335 453.609 49.2582 454.828 49.2582L534.045 49.0143C538.676 49.0143 542.82 51.4528 545.014 55.5983C567.194 97.7846 571.826 136.313 571.826 158.503V181.913C571.826 185.327 569.144 188.009 565.732 188.009H546.476C543.307 188.009 540.139 186.546 538.189 184.108L506.502 146.311C502.846 142.165 497.727 139.483 492.121 139.727H444.835Z" fill="url(#paint1_linear)"/>
<path d="M455.559 52.1842L534.289 51.9404C537.701 51.9404 540.87 53.8912 542.576 56.8175C565.488 100.467 569.144 139.239 569.144 158.26V181.669C569.144 183.376 567.682 184.839 565.976 184.839H546.72C544.282 184.839 542.089 183.864 540.626 182.157L508.939 144.36C504.796 139.483 498.702 136.557 492.121 136.557H448.247L455.559 52.1842ZM455.072 49.2581C453.853 49.2581 452.634 50.2334 452.634 51.4527L445.078 139.727H492.365C497.971 139.727 503.089 142.165 506.746 146.311L538.432 184.108C540.382 186.546 543.551 188.01 546.72 188.01H565.976C569.388 188.01 572.069 185.327 572.069 181.913V158.503C572.069 136.313 567.438 97.7845 545.257 55.5982C543.064 51.4527 538.92 49.0142 534.289 49.0142L455.072 49.2581Z" fill="#822626"/>
<path opacity="0.4" d="M583.281 231.659V278.235L668.348 277.991C667.373 265.798 665.18 254.093 661.523 243.12C660.061 238.731 656.405 235.56 651.774 234.829C633.005 232.634 609.118 231.659 583.281 231.659ZM755.365 277.991H797.533C798.264 267.749 798.995 251.167 799.727 232.39C789.489 232.878 779.983 233.853 771.452 235.073C766.821 235.804 763.165 238.974 761.703 243.364C758.29 254.093 756.34 265.798 755.365 277.991Z" fill="#CD2827"/>
<path d="M583.525 325.054L780.715 324.566C794.121 324.566 805.089 313.593 805.089 300.181V296.036C805.089 292.134 801.921 289.208 798.264 289.208L583.769 289.695L583.525 325.054Z" fill="#EE4D47"/>
<path d="M547.207 325.054H583.525V289.696H527.707L533.801 314.325C535.263 320.665 540.869 325.054 547.207 325.054Z" fill="#CD2827"/>
<path d="M460.434 196.057C468.721 196.301 484.808 198.008 484.808 203.86C484.808 209.712 470.671 211.663 459.215 211.663C447.759 211.663 446.54 205.323 445.565 202.641C444.834 199.958 444.103 195.813 460.434 196.057Z" fill="#CD2827"/>
<path d="M461.165 202.397C457.265 202.397 453.122 201.177 451.172 199.227C452.634 198.495 454.828 197.764 458.241 197.764C464.578 197.764 474.815 198.495 480.178 200.934C479.446 201.421 477.496 202.397 474.328 202.397C470.428 202.397 465.309 202.397 461.165 202.397Z" fill="#9B1616"/>
<path d="M477.496 207.03C478.959 207.03 479.69 207.274 479.934 207.518C475.546 209.468 467.503 210.2 463.603 210.2C457.997 210.2 454.097 210.2 452.878 208.981C453.853 208.249 456.047 207.03 458.24 207.03C461.165 207.274 475.546 207.03 477.496 207.03Z" fill="#9B1616"/>
<path d="M583.525 278.478C583.525 285.55 583.525 289.695 583.525 289.695L797.777 289.208C797.777 289.208 798.021 285.062 798.508 277.991L583.525 278.478Z" fill="#822626"/>
<g opacity="0.2">
<path d="M675.904 229.22V275.796L747.809 275.552V228.976C747.809 223.368 742.69 218.979 736.353 218.979H687.117C681.023 219.222 675.904 223.856 675.904 229.22Z" fill="#822626"/>
</g>
<path d="M771.939 274.089H787.051C790.951 274.089 794.364 270.919 794.364 266.773V259.214C794.364 255.312 791.195 251.899 787.051 251.899H771.939C768.039 251.899 764.627 255.069 764.627 259.214V266.773C764.627 270.919 768.039 274.089 771.939 274.089Z" fill="white"/>
<path d="M628.861 274.577H643.973C647.873 274.577 651.286 271.407 651.286 267.261V259.702C651.286 255.8 648.117 252.386 643.973 252.386H628.861C624.961 252.386 621.549 255.556 621.549 259.702V267.261C621.549 271.163 624.718 274.577 628.861 274.577Z" fill="white"/>
<path d="M531.363 145.092C531.363 146.067 532.094 146.799 532.825 147.042C542.332 148.018 552.325 148.018 562.562 146.799C563.781 146.555 564.512 145.823 564.512 144.604C565.244 125.096 565.244 106.075 564.512 88.0304C564.512 86.8112 563.537 86.0796 562.562 85.8358C552.081 84.6165 541.6 84.6165 530.632 85.8358C529.657 86.0796 528.926 87.055 528.926 88.0304C528.194 106.319 529.169 125.34 531.363 145.092Z" fill="#CD2827"/>
<path d="M569.143 162.405C569.874 162.405 570.605 161.917 570.849 161.186C571.337 160.21 570.849 158.991 569.874 158.504L553.3 150.456C550.862 149.237 549.156 146.555 549.156 143.872L548.912 82.6656C548.912 82.4218 549.156 82.4218 549.156 82.4218H559.393C560.612 82.4218 561.343 81.4464 561.343 80.471C561.343 79.2517 560.368 78.5202 559.393 78.5202H549.156C546.718 78.5202 544.769 80.471 544.769 82.9095L545.012 144.116C545.012 148.506 547.45 152.407 551.35 154.358L567.924 162.405C568.656 162.405 568.899 162.405 569.143 162.405Z" fill="#822626"/>
<path d="M680.93 327.942L749.909 327.792L749.864 307.065L680.885 307.215L680.93 327.942Z" fill="white"/>
<path opacity="0.8" d="M559.9 45.1184C575.012 79.7453 586.225 111.69 596.949 156.315L796.333 155.827C784.877 113.884 755.871 69.2596 743.928 52.9216C740.028 47.5569 736.615 42.9237 733.69 38.7783L563.556 39.266C560.631 39.5098 558.681 42.436 559.9 45.1184Z" fill="#8E6362"/>
<defs>
<linearGradient id="paint0_linear" x1="609.931" y1="-40.6307" x2="609.931" y2="297.04" gradientUnits="userSpaceOnUse">
<stop stop-color="#F4A984"/>
<stop offset="1" stop-color="#EE4D47"/>
</linearGradient>
<linearGradient id="paint1_linear" x1="505.868" y1="-288.354" x2="505.868" y2="296.573" gradientUnits="userSpaceOnUse">
<stop stop-color="#F4A984"/>
<stop offset="0.560769" stop-color="#EE4D47"/>
</linearGradient>
</defs>
</svg>
