<svg width="765" height="199" viewBox="0 0 765 199" fill="none" xmlns="http://www.w3.org/2000/svg">
<path d="M0 32.4888L14.3809 0.300415H57.5238L58.0112 122.226L0.24376 122.47L0 32.4888Z" fill="black"/>
<path d="M228.389 125.152L418.753 124.665L396.816 111.74L252.763 111.984L228.389 125.152Z" fill="#442B2B"/>
<path d="M48.749 16.6384L48.9928 138.808L203.527 138.564L252.763 111.984L396.817 111.74L441.178 138.077L755.609 137.345C760.728 137.345 764.871 133.199 764.871 128.079L764.628 15.1753L48.749 16.6384Z" fill="#822626"/>
<path d="M200.115 131.736C200.115 168.558 179.152 198.308 153.072 198.308H106.029V175.873C88.7231 175.873 74.5859 156.121 74.5859 131.736C74.5859 107.351 88.4794 87.5993 105.785 87.5993V65.1649H152.828C178.909 65.1649 200.115 94.9148 200.115 131.736Z" fill="black"/>
<path d="M71.1738 131.98C71.1738 162.218 88.4797 186.603 109.929 186.359C131.379 186.359 148.441 161.974 148.441 131.736C148.441 101.499 131.135 77.1138 109.686 77.3576C88.236 77.3576 71.1738 101.743 71.1738 131.98Z" fill="black"/>
<path d="M109.929 167.826C124.066 167.826 135.279 151.732 135.279 131.736C135.279 111.984 123.823 95.8902 109.685 95.8902C95.5482 95.8902 84.3359 111.984 84.3359 131.98C84.3359 151.976 95.7919 167.826 109.929 167.826ZM109.685 110.521C117.973 110.521 124.798 120.031 124.798 131.736C124.798 143.441 117.973 153.195 109.685 153.195C101.398 153.195 94.5732 143.685 94.5732 131.98C94.5732 120.032 101.398 110.521 109.685 110.521Z" fill="#625C5C"/>
<path d="M109.929 198.552C136.01 198.552 156.972 168.558 156.972 131.98C156.972 95.1587 135.766 65.4088 109.685 65.4088C83.6046 65.4088 62.6426 95.4026 62.6426 131.98C62.6426 168.802 83.8484 198.552 109.929 198.552ZM109.685 77.3575C131.135 77.3575 148.441 101.743 148.441 131.736C148.441 161.73 131.379 186.359 109.929 186.359C88.4796 186.359 71.1737 161.974 71.1737 131.98C71.1737 101.987 88.2358 77.3575 109.685 77.3575Z" fill="#424242"/>
<path d="M103.348 131.98C103.348 126.859 106.273 122.958 109.685 122.958C113.341 122.958 116.022 127.103 116.266 131.98C116.266 137.101 113.341 141.003 109.929 141.003C106.273 141.003 103.348 136.857 103.348 131.98Z" fill="#8B8282"/>
<path d="M231.558 131.493C231.558 168.314 252.763 198.064 278.844 198.064H326.131C352.211 198.064 373.173 168.07 373.173 131.493C373.173 94.671 351.968 64.9211 325.887 64.9211C325.399 64.9211 325.156 64.9211 324.668 64.9211H278.844C252.52 64.9211 231.558 94.9149 231.558 131.493Z" fill="#442B2B"/>
<path d="M602.05 130.761C602.05 167.582 623.256 197.332 649.336 197.332H696.623C722.704 197.332 743.666 167.339 743.666 130.761C743.666 93.9394 722.46 64.1895 696.379 64.1895C695.892 64.1895 695.648 64.1895 695.16 64.1895H649.336C623.012 64.1895 602.05 93.9394 602.05 130.761Z" fill="#402B2B"/>
<path d="M570.851 130.761C570.851 167.582 549.889 197.332 523.808 197.332H476.765V174.898C459.459 174.898 445.322 155.146 445.322 130.761C445.322 106.376 459.216 86.6237 476.522 86.6237V64.1895H523.564C549.645 64.4333 570.607 94.1832 570.851 130.761Z" fill="#402B2B"/>
<path d="M437.766 131.249C437.766 161.486 455.072 185.871 476.521 185.628C497.971 185.628 515.033 161.242 515.033 131.005C515.033 100.767 497.727 76.3822 476.277 76.6261C455.072 76.6261 437.766 101.011 437.766 131.249Z" fill="#4B2A2A"/>
<path opacity="0.32" d="M476.521 167.095C490.658 167.095 501.87 151.001 501.87 131.005C501.87 111.009 490.414 95.1586 476.277 95.1586C462.14 95.1586 450.928 111.253 450.928 131.249C450.928 151.244 462.384 167.095 476.521 167.095ZM476.521 109.79C484.808 109.79 491.633 119.3 491.633 131.005C491.633 142.71 484.808 152.464 476.521 152.464C468.234 152.464 461.409 142.953 461.409 131.249C461.409 119.3 467.99 109.79 476.521 109.79Z" fill="#E14841"/>
<path d="M476.521 197.576C502.602 197.576 523.564 167.582 523.564 131.005C523.564 94.427 502.358 64.4333 476.277 64.4333C450.196 64.4333 429.234 94.427 429.234 131.005C429.234 167.582 450.684 197.82 476.521 197.576ZM476.277 76.6259C497.727 76.6259 515.033 101.011 515.033 131.005C515.033 161.242 497.97 185.628 476.521 185.628C455.071 185.628 437.765 161.242 437.765 131.249C437.765 101.011 455.071 76.6259 476.277 76.6259Z" fill="#402B2B"/>
<path opacity="0.32" d="M469.94 131.005C469.94 125.884 472.865 121.982 476.278 121.982C479.69 121.982 482.615 126.128 482.859 131.005C482.859 136.126 479.934 140.027 476.522 140.027C472.865 140.271 469.94 136.126 469.94 131.005Z" fill="#E14841"/>
</svg>
